<?xml version="1.0" encoding="UTF-8"?>
<!DOCTYPE svg PUBLIC "-//W3C//DTD SVG 1.1//EN" "http://www.w3.org/Graphics/SVG/1.1/DTD/svg11.dtd">
<svg version="1.1" xmlns="http://www.w3.org/2000/svg" xmlns:xlink="http://www.w3.org/1999/xlink" x="0" y="0" width="755.882" height="752.064" viewBox="0, 0, 755.882, 752.064">
  <g id="Layer_1">
    <path d="M376.482,7.667 L376.622,745.288" fill-opacity="0" stroke="#000000" stroke-width="4" id="path2987"/>
    <g id="path2989">
      <path d="M382.846,736.14 L376.281,751.378 L369.582,736.096 z" fill="#000000"/>
      <path d="M382.846,736.14 L376.281,751.378 L369.582,736.096 z" fill-opacity="0" stroke="#000000" stroke-width="0.547"/>
    </g>
    <g id="path2991">
      <path d="M369.054,16.193 L376.248,0.679 L383.393,16.103 z" fill="#000000"/>
      <path d="M369.054,16.193 L376.248,0.679 L383.393,16.103 z" fill-opacity="0" stroke="#000000" stroke-width="0.571"/>
    </g>
    <path d="M7.985,372.739 L746.142,374.624" fill-opacity="0" stroke="#000000" stroke-width="4" id="path2993"/>
    <g id="path2995">
      <path d="M741.406,380.448 L741.453,368.781 L755.167,374.525 z" fill="#000000"/>
      <path d="M741.406,380.448 L741.453,368.781 L755.167,374.525 z" fill-opacity="0" stroke="#000000" stroke-width="0.559"/>
    </g>
    <g id="path3003">
      <path d="M18.38,366.614 L0.892,372.716 L18.434,378.949 z" fill="#000000"/>
      <path d="M18.38,366.614 L0.892,372.716 L18.434,378.949 z" fill-opacity="0" stroke="#000000" stroke-width="0.593"/>
    </g>
    <path d="M703.956,374.218 C703.982,555.001 557.436,701.569 376.653,701.569 C195.87,701.569 49.324,555.001 49.35,374.218 C49.324,193.435 195.87,46.868 376.653,46.868 C557.436,46.868 703.982,193.435 703.956,374.218 z" fill-opacity="0" stroke="#000000" stroke-width="4" id="path3760"/>
    <path d="M612.897,374.367 L613.401,152.318 L375.773,373.86 z" fill-opacity="0" stroke="#AA0000" stroke-width="8" stroke-linejoin="round" id="path3766"/>
  </g>
  <g id="text3774">
    <path d="M641.452,148.918 L637.28,148.918 Q635.123,145.059 634.092,141.59 Q633.061,138.106 633.061,134.684 Q633.061,131.262 634.092,127.762 Q635.139,124.246 637.28,120.418 L641.452,120.418 Q639.655,124.121 638.748,127.668 Q637.842,131.199 637.842,134.652 Q637.842,138.106 638.733,141.652 Q639.639,145.199 641.452,148.918 z" fill="#000000" id="path965"/>
    <path d="M650.186,135.746 L644.498,127.199 L649.827,127.199 L653.045,132.387 L656.311,127.199 L661.639,127.199 L655.952,135.715 L661.92,144.699 L656.592,144.699 L653.045,139.168 L649.545,144.699 L644.217,144.699 z" fill="#000000" id="path967"/>
    <path d="M665.28,138.652 L670.342,138.652 L670.342,143.418 L666.873,149.246 L663.873,149.246 L665.28,143.418 z" fill="#000000" id="path969"/>
    <path d="M673.623,127.199 L678.67,127.199 L682.905,139.074 L686.498,127.199 L691.53,127.199 L684.905,146.356 Q683.905,149.277 682.577,150.434 Q681.248,151.606 679.077,151.606 L676.155,151.606 L676.155,147.934 L677.733,147.934 Q679.014,147.934 679.592,147.481 Q680.186,147.027 680.514,145.856 L680.655,145.371 z" fill="#000000" id="path971"/>
    <path d="M694.342,148.918 Q696.139,145.199 697.03,141.652 Q697.936,138.106 697.936,134.652 Q697.936,131.199 697.03,127.668 Q696.139,124.121 694.342,120.418 L698.514,120.418 Q700.655,124.246 701.686,127.762 Q702.717,131.262 702.717,134.684 Q702.717,138.106 701.686,141.59 Q700.67,145.059 698.514,148.918 z" fill="#000000" id="path973"/>
  </g>
  <g id="text3778">
    <path d="M627.883,258.153 L632.929,258.153 L637.164,270.028 L640.758,258.153 L645.789,258.153 L639.164,277.309 Q638.164,280.231 636.836,281.387 Q635.508,282.559 633.336,282.559 L630.414,282.559 L630.414,278.887 L631.992,278.887 Q633.273,278.887 633.851,278.434 Q634.445,277.981 634.773,276.809 L634.914,276.324 z" fill="#000000" id="path953"/>
  </g>
  <g id="text3782">
    <path d="M495.379,235.764 Q494.707,235.42 494.051,235.264 Q493.41,235.092 492.739,235.092 Q490.801,235.092 489.754,236.483 Q488.707,237.858 488.707,240.436 L488.707,248.498 L483.676,248.498 L483.676,230.998 L488.707,230.998 L488.707,233.873 Q489.676,232.155 490.926,231.373 Q492.192,230.576 493.957,230.576 Q494.207,230.576 494.504,230.608 Q494.801,230.623 495.364,230.701 z" fill="#000000" id="path962"/>
  </g>
  <g id="text3786">
    <path d="M499.47,395.736 L493.783,387.189 L499.111,387.189 L502.33,392.377 L505.595,387.189 L510.923,387.189 L505.236,395.705 L511.205,404.689 L505.876,404.689 L502.33,399.158 L498.83,404.689 L493.501,404.689 z" fill="#000000" id="path956"/>
  </g>
  <g id="text3790">
    <path d="M431.005,350.817 Q430.786,352.286 430.786,353.458 Q430.786,354.614 431.068,355.317 Q431.958,357.599 433.208,357.599 Q434.443,357.599 436.13,355.317 Q437.13,353.958 437.786,350.817 z M438.474,346.817 Q438.568,345.817 438.568,344.739 Q438.568,343.677 438.318,342.786 Q437.646,340.505 436.193,340.505 Q434.724,340.505 433.286,342.786 Q432.318,344.302 431.724,346.817 z M429.583,340.067 Q432.161,336.661 436.865,336.661 Q441.583,336.661 442.958,340.067 Q443.755,342.036 443.755,344.411 Q443.755,346.802 443.333,349.208 Q442.333,354.942 439.724,358.255 Q437.099,361.583 432.505,361.583 Q427.911,361.583 426.458,358.255 Q425.599,356.302 425.599,353.927 Q425.599,351.552 426.005,349.208 Q427.005,343.474 429.583,340.067 z" fill="#000000" id="path959"/>
  </g>
</svg>
